<svg xmlns="http://www.w3.org/2000/svg" viewBox="0 0 260 430" font-family="'Segoe UI', Arial, sans-serif">
  <defs>
    <marker id="arrow" markerWidth="9" markerHeight="9" refX="4.5" refY="4.5" orient="auto">
      <path d="M0,0 L9,4.5 L0,9 z" fill="#6B6E68"/>
    </marker>
  </defs>
  <rect x="1" y="1" width="258" height="428" rx="14" fill="#F7F5F0" stroke="#D8D4C8"/>
  <text x="130" y="30" text-anchor="middle" font-size="15" font-weight="700" fill="#FF5A1F">v3 · Shared</text>
  <text x="130" y="48" text-anchor="middle" font-size="10" fill="#6B6E68">team-wide persistence</text>

  <rect x="50" y="68" width="160" height="44" rx="8" fill="#0E1110"/>
  <text x="130" y="95" text-anchor="middle" font-size="13" font-weight="600" fill="#F7F5F0">User</text>

  <line x1="130" y1="114" x2="130" y2="142" stroke="#6B6E68" stroke-width="1.5" marker-end="url(#arrow)"/>

  <rect x="30" y="146" width="200" height="54" rx="8" fill="#FCFBF8" stroke="#D8D4C8" stroke-width="1.5"/>
  <text x="130" y="169" text-anchor="middle" font-size="12.5" font-weight="700" fill="#0E1110">GitHub Pages</text>
  <text x="130" y="187" text-anchor="middle" font-size="10" fill="#6B6E68">static front end (v3/index.html)</text>

  <line x1="130" y1="202" x2="130" y2="230" stroke="#6B6E68" stroke-width="1.5" marker-end="url(#arrow)"/>
  <text x="146" y="219" font-size="9" fill="#6B6E68">API calls</text>

  <rect x="30" y="234" width="200" height="54" rx="8" fill="#FCFBF8" stroke="#D8D4C8" stroke-width="1.5"/>
  <text x="130" y="257" text-anchor="middle" font-size="12.5" font-weight="700" fill="#0E1110">Render · Express API</text>
  <text x="130" y="275" text-anchor="middle" font-size="10" fill="#6B6E68">Node.js · CRUD /api/sessions</text>

  <line x1="130" y1="290" x2="130" y2="318" stroke="#6B6E68" stroke-width="1.5" marker-end="url(#arrow)"/>
  <text x="146" y="307" font-size="9" fill="#6B6E68">SQL</text>

  <rect x="30" y="322" width="200" height="54" rx="8" fill="#FFE4D6" stroke="#FF5A1F" stroke-width="1.5"/>
  <text x="130" y="345" text-anchor="middle" font-size="12.5" font-weight="700" fill="#0E1110">Neon · PostgreSQL</text>
  <text x="130" y="363" text-anchor="middle" font-size="10" fill="#6B6E68">shared sessions table</text>
</svg>
